<svg width="473" height="523" viewBox="0 0 473 523" fill="none" xmlns="http://www.w3.org/2000/svg">
<path d="M265.231 35.1234C258.047 38.7151 243.298 48.8315 237.031 53.9231L236.444 54.5106L235.856 53.9231C233.506 51.5731 215.686 40.0191 207.069 34.5359C204.327 32.7734 198.492 27.956 197.082 22.7861C195.319 16.3237 195.319 6.92384 206.482 1.63642C217.644 -3.651 228.219 5.16137 232.331 9.86129C235.621 13.6212 240.36 11.4279 242.319 9.86129C244.081 6.14052 250.426 -0.71354 261.706 1.63642C272.986 3.98638 276.197 14.757 276.393 19.8486C275.806 23.7652 272.28 31.5984 265.231 35.1234Z" fill="#F1F3F5"/>
<path d="M321.357 510.589V436.565C326.821 421.268 339.554 423.641 353.082 423.641C358.722 423.641 363.657 427.557 365.419 429.515L398.319 501.189C401.139 506.829 397.144 509.806 394.794 510.589L335.457 522.339C326.527 524.689 322.337 515.485 321.357 510.589Z" fill="#F1F3F5"/>
<path d="M0 313.78V216.844L59.924 182.769C99.4034 85.011 194.264 63.313 236.759 64.6838C348.617 68.9137 398.514 145.17 409.481 182.769L472.342 217.431V314.955L409.481 349.617C371.882 399.436 328.799 416.199 311.957 418.353V509.414C308.668 518.814 303.145 520.772 300.795 520.576H169.197C164.497 519.636 159.797 512.743 158.035 509.414V418.353C114.326 408.013 75.1988 367.046 61.099 347.854L0 313.78Z" fill="#F1F3F5"/>
<path d="M103.398 435.39L74.6113 504.127C72.8398 508.357 77.0065 510.981 79.3112 511.764L137.473 522.339C145.933 521.399 148.831 514.897 149.223 511.764V435.39C148.753 430.22 141.194 426.578 137.473 425.403C134.731 425.599 127.133 425.873 118.673 425.403C110.213 424.933 104.965 431.865 103.398 435.39Z" fill="#F1F3F5"/>
<path d="M251.446 225.009H219.721L197.984 196.222H135.71C111.741 199.982 96.3485 226.38 91.6486 239.109V321.357C102.458 361.307 132.185 372.077 145.698 372.469H330.757C369.767 361.659 379.519 331.54 379.519 317.832V239.109C373.409 210.439 347.99 198.572 336.045 196.222H274.358L251.446 225.009Z" fill="#16191D"/>
<path d="M214.87 433.748C226.149 432.808 234.061 442.756 236.607 447.848C245.537 435.158 253.644 433.16 256.581 433.748C268.801 433.748 274.989 441.973 276.556 446.085C280.316 455.955 273.814 467.431 270.094 471.935L246.594 498.372C239.544 505.422 229.557 501.309 225.444 498.372L202.532 471.935C194.542 463.475 194.503 451.177 195.482 446.085C202.532 434.335 211.345 432.965 214.87 433.748Z" fill="#16191D"/>
<ellipse cx="150.985" cy="280.82" rx="31.137" ry="30.5495" fill="#7B3838"/>
<ellipse cx="321.357" cy="280.82" rx="31.137" ry="30.5495" fill="#7B3838"/>
<path d="M267.711 318.939C232.462 342.439 206.025 319.527 204.262 318.939C197.8 316.785 196.625 321.876 197.8 324.227C199.563 327.752 214.955 334.684 222.475 336.564C229.995 338.444 241.666 337.348 246.562 336.564C266.536 332.452 269.474 325.402 271.824 325.402C275.114 319.762 270.453 318.744 267.711 318.939Z" fill="#7B3838"/>
</svg>
